<?xml version="1.0" encoding="UTF-8" standalone="no"?>
<!-- Created with Inkscape (http://www.inkscape.org/) -->

<svg
   xmlns:dc="http://purl.org/dc/elements/1.1/"
   xmlns:cc="http://creativecommons.org/ns#"
   xmlns:rdf="http://www.w3.org/1999/02/22-rdf-syntax-ns#"
   xmlns:svg="http://www.w3.org/2000/svg"
   xmlns="http://www.w3.org/2000/svg"
   xmlns:sodipodi="http://sodipodi.sourceforge.net/DTD/sodipodi-0.dtd"
   xmlns:inkscape="http://www.inkscape.org/namespaces/inkscape"
   id="svg2985"
   version="1.1"
   inkscape:version="0.48.4 r9939"
   width="15.999355"
   height="11.294359"
   xml:space="preserve"
   sodipodi:docname="aimproj_logo.svg"><metadata
     id="metadata2991"><rdf:RDF><cc:Work
         rdf:about=""><dc:format>image/svg+xml</dc:format><dc:type
           rdf:resource="http://purl.org/dc/dcmitype/StillImage" /><dc:title></dc:title></cc:Work></rdf:RDF></metadata><defs
     id="defs2989" /><sodipodi:namedview
     pagecolor="#ffffff"
     bordercolor="#666666"
     borderopacity="1"
     objecttolerance="10"
     gridtolerance="10"
     guidetolerance="10"
     inkscape:pageopacity="0"
     inkscape:pageshadow="2"
     inkscape:window-width="737"
     inkscape:window-height="480"
     id="namedview2987"
     showgrid="false"
     inkscape:zoom="1.1257521"
     inkscape:cx="12.35668"
     inkscape:cy="-20.525993"
     inkscape:window-x="0"
     inkscape:window-y="0"
     inkscape:window-maximized="0"
     inkscape:current-layer="g2993"
     fit-margin-top="0"
     fit-margin-left="0"
     fit-margin-right="0"
     fit-margin-bottom="0" /><g
     id="g2993"
     inkscape:groupmode="layer"
     inkscape:label="ink_ext_XXXXXX"
     transform="matrix(1.25,0,0,-1.25,-113.33707,115.74536)"><path
       inkscape:connector-curvature="0"
       id="path2997"
       style="fill:#ffffff;fill-opacity:1;fill-rule:nonzero;stroke:none"
       d="m 102.83826,86.299365 c 0,-0.741004 -0.62973,-1.341894 -1.40544,-1.341894 -0.77619,0 -1.40592,0.60089 -1.40592,1.341894 0,0.740553 0.62973,1.341894 1.40592,1.341894 0.77571,0 1.40544,-0.601341 1.40544,-1.341894" /><path
       inkscape:connector-curvature="0"
       id="path2999"
       style="fill:#ffffff;fill-opacity:1;fill-rule:nonzero;stroke:none"
       d="m 101.30764,88.43685 c 0,-2.231916 -1.799673,-4.043474 -4.017134,-4.043474 -2.217462,0 -4.017258,1.811558 -4.017258,4.043474 0,2.232155 1.799796,4.043329 4.017258,4.043329 2.217461,0 4.017134,-1.811174 4.017134,-4.043329" /><g
       transform="matrix(0.00949177,0,0,-0.00967813,87.765336,79.635757)"
       id="g3001"><path
         inkscape:connector-curvature="0"
         id="path3003"
         style="fill:none;stroke:#000000;stroke-width:24.00110054;stroke-linecap:butt;stroke-linejoin:miter;stroke-miterlimit:10;stroke-opacity:1;stroke-dasharray:none"
         d="m 1426.74,-909.377 c 0,230.613 -189.6,417.793 -423.22,417.793 -233.62,0 -423.237,-187.18 -423.237,-417.793 0,-230.643 189.617,-417.783 423.237,-417.783 233.62,0 423.22,187.14 423.22,417.783 z" /></g><path
       inkscape:connector-curvature="0"
       id="path3005"
       style="fill:#280b0b;fill-opacity:1;fill-rule:nonzero;stroke:none"
       d="m 99.017409,88.215159 0.0019,0.287098 2.307001,-0.02115 -0.002,-0.287136 -2.306998,0.02119" /><g
       transform="matrix(7.2900526e-5,0.01060768,0.00841213,-7.7189987e-5,87.765336,79.635757)"
       id="g3007"><path
         inkscape:connector-curvature="0"
         id="path3009"
         style="fill:none;stroke:#000000;stroke-width:11.37800026;stroke-linecap:butt;stroke-linejoin:miter;stroke-miterlimit:10;stroke-opacity:1;stroke-dasharray:none"
         d="m 818.471,1330.51 27.065,0 0.002,274.25 -27.069,-0.01 0.002,-274.24 z" /></g><path
       inkscape:connector-curvature="0"
       id="path3011"
       style="fill:#2b0000;fill-opacity:1;fill-rule:nonzero;stroke:none"
       d="m 93.410619,88.23822 0.003,0.284894 2.024372,-0.01981 -0.0033,-0.284884 -2.024076,0.0198" /><g
       transform="matrix(1.1723557e-4,0.01036997,0.008599,-8.3751276e-5,87.765336,79.635757)"
       id="g3013"><path
         inkscape:connector-curvature="0"
         id="path3015"
         style="fill:none;stroke:#000000;stroke-width:10.61989975;stroke-linecap:butt;stroke-linejoin:miter;stroke-miterlimit:10;stroke-opacity:1;stroke-dasharray:none"
         d="m 834.769,645.123 27.473,-0.027 -0.009,235.42 -27.473,-0.009 0.009,-235.384 z" /></g><path
       inkscape:connector-curvature="0"
       id="path3017"
       style="fill:#2b0000;fill-opacity:1;fill-rule:nonzero;stroke:none"
       d="m 97.342581,90.137615 -0.265714,6.7e-4 -0.002,2.318219 0.266088,-6.71e-4 0.0016,-2.318218" /><g
       transform="matrix(-0.00963547,2.5707727e-5,-6.8783498e-6,0.00950185,87.765336,79.635757)"
       id="g3019"><path
         inkscape:connector-curvature="0"
         id="path3021"
         style="fill:none;stroke:#000000;stroke-width:10.84329987;stroke-linecap:butt;stroke-linejoin:miter;stroke-miterlimit:10;stroke-opacity:1;stroke-dasharray:none"
         d="m -994.747,1107.93 27.577,0 0.036,243.97 -27.616,0.01 0.003,-243.98 z" /></g><path
       inkscape:connector-curvature="0"
       id="path3023"
       style="fill:#000000;fill-opacity:1;fill-rule:nonzero;stroke:none"
       d="m 94.25978,83.560798 -0.319592,1.028514 -1.519034,0 -0.340343,-1.028514 -1.411155,0 1.751498,5.219011 1.838626,0 1.772249,-5.219011 -1.772249,0 z m -1.543965,2.167888 0.921393,0 -0.460673,1.514088 -0.46072,-1.514088" /><path
       inkscape:connector-curvature="0"
       id="path3025"
       style="fill:#ffffff;fill-opacity:1;fill-rule:nonzero;stroke:none"
       d="m 96.122109,86.746714 2.107157,0 0,1.040908 -2.107157,0 0,-1.040908 z" /><path
       inkscape:connector-curvature="0"
       id="path3027"
       style="fill:#ffffff;fill-opacity:1;fill-rule:nonzero;stroke:none"
       d="m 97.623085,88.993228 c 0,-0.08724 -0.0809,-0.158344 -0.180868,-0.158344 -0.09956,0 -0.180428,0.0711 -0.180428,0.158344 0,0.08723 0.08087,0.15796 0.180428,0.15796 0.09997,0 0.180868,-0.07073 0.180868,-0.15796" /><path
       inkscape:connector-curvature="0"
       id="path3051"
       style="fill:#000000;fill-opacity:1;fill-rule:nonzero;stroke:none"
       d="m 97.791684,88.09067 0,-1.009642 -1.2457,0 0,1.009642 1.2457,0 z m 0,-1.249266 0,-3.249378 -1.2457,0 0,3.249378 1.2457,0" /><path
       inkscape:connector-curvature="0"
       id="path3053"
       style="fill:#000000;fill-opacity:1;fill-rule:nonzero;stroke:none"
       d="m 103.46914,83.606624 -1.25802,0 0,2.02951 c 0,0.136173 -0.02,0.231342 -0.0602,0.285593 -0.0401,0.05426 -0.11099,0.0814 -0.21288,0.0814 -0.24278,0 -0.36413,-0.173392 -0.36413,-0.520176 l 0,-1.876332 -1.24509,0 0,2.02951 c 0,0.259541 -0.10179,0.389312 -0.30557,0.389312 -0.210193,0 -0.31534,-0.129771 -0.31534,-0.389312 l 0,-2.02951 -1.248346,0 0,3.245295 1.163902,0 0,-0.437161 c 0.207994,0.336107 0.510304,0.504179 0.906934,0.504179 0.42691,0 0.73689,-0.168072 0.92974,-0.504179 0.21451,0.336107 0.54404,0.504179 0.9883,0.504179 0.21231,0 0.39931,-0.04361 0.56072,-0.130816 0.16151,-0.08724 0.27854,-0.199453 0.3511,-0.336671 0.0727,-0.137219 0.10888,-0.349401 0.10888,-0.636614 l 0,-2.208212" /><path
       inkscape:connector-curvature="0"
       id="path3055"
       style="fill:#ffffff;fill-opacity:1;fill-rule:nonzero;stroke:none"
       d="m 95.96089,87.044184 2.521554,0 0,1.320817 -2.521554,0 0,-1.320817 z" /><path
       inkscape:connector-curvature="0"
       id="path3057"
       style="fill:none;stroke:none"
       d="m 95.96089,87.044184 2.521554,0 0,1.320817 -2.521554,0 0,-1.320817 z" /><path
       inkscape:connector-curvature="0"
       id="path3059"
       style="fill:#ff0000;fill-opacity:1;fill-rule:nonzero;stroke:none"
       d="m 98.34742,88.372525 c 0,-0.642116 -0.507715,-1.163231 -1.133258,-1.163231 -0.625534,0 -1.133201,0.521115 -1.133201,1.163231 0,0.642116 0.507667,1.16325 1.133201,1.16325 0.625543,0 1.133258,-0.521134 1.133258,-1.16325" /><g
       transform="matrix(0.00987299,0,0,-0.00929695,87.765336,79.635757)"
       id="g3061"><path
         inkscape:connector-curvature="0"
         id="path3063"
         style="fill:none;stroke:none"
         d="m 1071.82,-939.746 c 0,69.068 -51.42,125.119 -114.781,125.119 -63.358,0 -114.777,-56.051 -114.777,-125.119 0,-69.064 51.419,-125.114 114.777,-125.114 63.361,0 114.781,56.05 114.781,125.114 z" /></g></g></svg>